<svg width="42" height="34" viewBox="0 0 42 34" fill="none" xmlns="http://www.w3.org/2000/svg">
<path d="M8.76829 15.4377C4.16404 18.1325 -0.609453 21.9861 1.50506 24.4861C3.61958 26.986 7.87372 21.1681 11.8132 22.1327C15.7527 23.0973 18.012 29.7136 19.3127 31.3404C20.6135 32.9673 21.8822 34.9749 25.0902 30.8008C28.2982 26.6268 37.745 12.4681 40.2118 8.78739C42.6787 5.10666 40.0987 2.69612 36.1669 2.19505C32.2351 1.69397 1.51174 -0.412573 -1.57701 0.158593C-4.66577 0.729757 -5.16302 1.46433 -3.90484 2.95162C-2.64667 4.4389 0.794284 9.64819 4.81259 9.89568C10.9627 10.2745 27.2467 7.1886 28.3082 8.57956C29.3451 9.93816 12.3515 13.3405 8.76829 15.4377Z" fill="#5992E8"/>
</svg>
